<?xml version="1.0" standalone="no"?><!DOCTYPE svg PUBLIC "-//W3C//DTD SVG 1.1//EN" "http://www.w3.org/Graphics/SVG/1.1/DTD/svg11.dtd"><svg t="1708571044530" class="icon" viewBox="0 0 1024 1024" version="1.1" xmlns="http://www.w3.org/2000/svg" p-id="5669" xmlns:xlink="http://www.w3.org/1999/xlink" width="200" height="200"><path d="M768.7424 193.4336c0 85.7088-36.864 146.176-76.672 205.3888-8.9088 13.312 2.9696 22.0928 13.312 11.776 26.624-26.624 63.488-60.6208 146.0736-60.6208 88.576 0 153.4464 76.7744 153.4464 224.512 0 159.5904-97.3312 277.76-206.592 277.76-106.24 0-208-97.5872-237.568-161.0496-10.3424-22.1184-19.1488-36.9664-29.5936-36.9664-7.3728 0-10.3424 8.9088-10.3424 20.6848 0 132.992 56.0896 257.5104 120.6528 292.7104 2.0992 1.1008 19.2512 17.0496-12.416 23.8592-26.0608 5.7344-198.5536 19.3536-254.7712-16.2816-7.2448-4.608 0.2304-14.5152 7.3728-16.2816 89.7536-22.016 108.2368-221.952 108.2368-298.8544 0-11.776-2.9696-20.6848-11.776-20.6848-10.3168 0-16.256 10.3424-22.0928 22.2208-33.8944 69.4016-112.1024 161.024-230.144 161.024C107.776 822.784 19.2 686.7968 19.2 556.9024c0-130.048 70.8352-236.416 171.1616-236.416 58.9568 0 121.0112 38.4 159.2832 62.0544 10.3424 5.9392 17.7152-5.9392 7.3728-13.312-63.488-45.7728-84.1472-99.0208-84.1472-178.7648 0-53.248 53.12-165.4272 241.9968-165.4272 188.9792 0 253.8752 73.9072 253.8752 168.3968z" fill="#2c2c2c" p-id="5670"></path></svg>