<?xml version="1.0" standalone="no"?><!DOCTYPE svg PUBLIC "-//W3C//DTD SVG 1.1//EN" "http://www.w3.org/Graphics/SVG/1.1/DTD/svg11.dtd"><svg t="1737269921461" class="icon" viewBox="0 0 1294 1024" version="1.1" xmlns="http://www.w3.org/2000/svg" p-id="1676" xmlns:xlink="http://www.w3.org/1999/xlink" width="252.734375" height="200"><path d="M1258.154667 215.915874c23.964176-21.542642 39.923119-14.870541 35.749836 15.231195-18.270994 231.630088-50.079396 464.045887-95.476729 696.030189-8.076075 30.088855-48.185962 59.334038-88.869032 64.099824a3925.50078 3925.50078 0 0 1-924.150339 0c-40.670189-4.759346-80.812277-33.991648-88.869032-64.093384C51.135597 695.192956 19.327195 462.777157 1.056201 231.153509c-4.166843-30.101736 11.540931-36.541987 35.202415-14.722415a3051.990138 3051.990138 0 0 0 252.850717 208.219774c26.933132 19.906818 64.975698 15.411522 83.336856-9.72478C466.525384 286.848805 550.693031 154.823648 624.730164 19.984101c14.522767-26.385711 36.85756-26.128101 50.736301 0.598943 69.606239 134.317887 148.647447 266.156277 236.962617 394.516931 17.523925 25.60644 55.141434 30.848805 82.44166 11.328402a3054.914013 3054.914013 0 0 0 263.283925-210.512503z" fill="#F8C51C" p-id="1677"></path></svg>