<?xml version="1.0" standalone="no"?><!DOCTYPE svg PUBLIC "-//W3C//DTD SVG 1.1//EN" "http://www.w3.org/Graphics/SVG/1.1/DTD/svg11.dtd"><svg t="1708571102214" class="icon" viewBox="0 0 1024 1024" version="1.1" xmlns="http://www.w3.org/2000/svg" p-id="7188" xmlns:xlink="http://www.w3.org/1999/xlink" width="200" height="200"><path d="M770.048 4.096c138.24 0 253.952 128 253.952 292.864 0 180.224-144.384 309.248-235.52 396.288-110.592 106.496-229.376 251.904-274.432 324.608-1.024 2.048-4.096 2.048-5.12 0-44.032-72.704-162.816-218.112-273.408-323.584C144.384 606.208 0 476.16 0 297.984 0 132.096 115.712 4.096 253.952 4.096c114.688 0 215.04 59.392 251.904 194.56 1.024 4.096 2.048 8.192 6.144 8.192s5.12-5.12 6.144-8.192C552.96 64.512 655.36 4.096 770.048 4.096z" fill="#d81e06" p-id="7189" data-spm-anchor-id="a313x.search_index.0.i6.19963a81OqIHQX" class=""></path></svg>