<?xml version="1.0" standalone="no"?><!DOCTYPE svg PUBLIC "-//W3C//DTD SVG 1.1//EN" "http://www.w3.org/Graphics/SVG/1.1/DTD/svg11.dtd"><svg t="1708571239793" class="icon" viewBox="0 0 1024 1024" version="1.1" xmlns="http://www.w3.org/2000/svg" p-id="9885" xmlns:xlink="http://www.w3.org/1999/xlink" width="200" height="200"><path d="M711.6544 233.3696c-101.632-72.0384-188.672-173.1328-199.0912-214.1696-12.2112 41.9072-90.4448 140.2624-200.192 212.0704C199.168 305.408 29.0816 374.7328 30.2848 560.1792c2.2016 325.9392 332.544 400.384 467.6096 143.5392-3.7376 85.5808-26.0608 243.456-103.936 262.5792-6.9376 1.664-14.208 11.2128-7.168 15.744 54.3488 34.304 221.1072 21.12 246.272 15.7184 30.72-6.6048 14.08-21.888 12.1344-22.9888-59.648-32.4608-111.6672-143.232-116.4032-264.8832 132.992 239.0272 462.464 175.872 464.768-147.6096 1.3056-185.472-170.8288-250.2656-281.9328-328.9088z" fill="#2c2c2c" p-id="9886"></path></svg>